<mxfile host="Electron" modified="2024-01-08T13:19:13.223Z" agent="Mozilla/5.0 (Windows NT 10.0; Win64; x64) AppleWebKit/537.36 (KHTML, like Gecko) draw.io/22.1.16 Chrome/120.0.6099.109 Electron/28.1.0 Safari/537.36" etag="SAlwXlA1WOVZqSuaccRO" version="22.1.16" type="device">
  <diagram name="Page-1" id="yxwkJsrrysWRljGh_6iH">
    <mxGraphModel dx="674" dy="463" grid="1" gridSize="10" guides="1" tooltips="1" connect="1" arrows="1" fold="1" page="1" pageScale="1" pageWidth="850" pageHeight="1100" math="0" shadow="0">
      <root>
        <mxCell id="0" />
        <mxCell id="1" parent="0" />
        <mxCell id="ccUrM3d9FcwV-wmx_-Au-19" value="" style="rounded=0;whiteSpace=wrap;html=1;fillColor=none;strokeColor=#666666;" vertex="1" parent="1">
          <mxGeometry x="210" y="275" width="160" height="40" as="geometry" />
        </mxCell>
        <mxCell id="ccUrM3d9FcwV-wmx_-Au-18" value="" style="rounded=0;whiteSpace=wrap;html=1;fillColor=none;strokeColor=#666666;" vertex="1" parent="1">
          <mxGeometry x="210" y="195" width="160" height="40" as="geometry" />
        </mxCell>
        <mxCell id="ccUrM3d9FcwV-wmx_-Au-17" value="" style="rounded=0;whiteSpace=wrap;html=1;fillColor=none;strokeColor=#666666;" vertex="1" parent="1">
          <mxGeometry x="180" y="235" width="190" height="40" as="geometry" />
        </mxCell>
        <mxCell id="ccUrM3d9FcwV-wmx_-Au-16" value="" style="rounded=0;whiteSpace=wrap;html=1;fillColor=none;strokeColor=#666666;" vertex="1" parent="1">
          <mxGeometry x="180" y="155" width="190" height="40" as="geometry" />
        </mxCell>
        <mxCell id="ccUrM3d9FcwV-wmx_-Au-15" value="" style="rounded=0;whiteSpace=wrap;html=1;fillColor=none;strokeColor=#666666;" vertex="1" parent="1">
          <mxGeometry x="150" y="115" width="220" height="40" as="geometry" />
        </mxCell>
        <mxCell id="ccUrM3d9FcwV-wmx_-Au-1" value="" style="image;aspect=fixed;html=1;points=[];align=center;fontSize=12;image=img/lib/azure2/general/Folder_Blank.svg;" vertex="1" parent="1">
          <mxGeometry x="190" y="160" width="36.97" height="30" as="geometry" />
        </mxCell>
        <mxCell id="ccUrM3d9FcwV-wmx_-Au-2" value="" style="shadow=0;dashed=0;html=1;labelPosition=center;verticalLabelPosition=bottom;verticalAlign=top;align=center;outlineConnect=0;shape=mxgraph.veeam.3d.hard_drive;fillColor=#637D8A;gradientColor=#324752;strokeColor=none;" vertex="1" parent="1">
          <mxGeometry x="160" y="120" width="50" height="30" as="geometry" />
        </mxCell>
        <mxCell id="ccUrM3d9FcwV-wmx_-Au-5" value="Data (D:)" style="text;html=1;strokeColor=none;fillColor=none;align=center;verticalAlign=middle;whiteSpace=wrap;rounded=0;" vertex="1" parent="1">
          <mxGeometry x="220" y="122.5" width="73.03" height="25" as="geometry" />
        </mxCell>
        <mxCell id="ccUrM3d9FcwV-wmx_-Au-6" value="新建文件夹1" style="text;html=1;strokeColor=none;fillColor=none;align=center;verticalAlign=middle;whiteSpace=wrap;rounded=0;" vertex="1" parent="1">
          <mxGeometry x="240" y="162.5" width="73.03" height="25" as="geometry" />
        </mxCell>
        <mxCell id="ccUrM3d9FcwV-wmx_-Au-7" value="" style="image;aspect=fixed;html=1;points=[];align=center;fontSize=12;image=img/lib/azure2/general/Folder_Blank.svg;" vertex="1" parent="1">
          <mxGeometry x="190" y="240" width="36.97" height="30" as="geometry" />
        </mxCell>
        <mxCell id="ccUrM3d9FcwV-wmx_-Au-8" value="新建文件夹2" style="text;html=1;strokeColor=none;fillColor=none;align=center;verticalAlign=middle;whiteSpace=wrap;rounded=0;" vertex="1" parent="1">
          <mxGeometry x="240" y="242.5" width="73.03" height="25" as="geometry" />
        </mxCell>
        <mxCell id="ccUrM3d9FcwV-wmx_-Au-11" value="" style="sketch=0;outlineConnect=0;fontColor=#232F3E;gradientColor=none;fillColor=#232F3D;strokeColor=none;dashed=0;verticalLabelPosition=bottom;verticalAlign=top;align=center;html=1;fontSize=12;fontStyle=0;aspect=fixed;pointerEvents=1;shape=mxgraph.aws4.document;" vertex="1" parent="1">
          <mxGeometry x="220" y="195" width="29.23" height="40" as="geometry" />
        </mxCell>
        <mxCell id="ccUrM3d9FcwV-wmx_-Au-12" value="Test.txt" style="text;html=1;strokeColor=none;fillColor=none;align=center;verticalAlign=middle;whiteSpace=wrap;rounded=0;" vertex="1" parent="1">
          <mxGeometry x="270" y="202.5" width="73.03" height="25" as="geometry" />
        </mxCell>
        <mxCell id="ccUrM3d9FcwV-wmx_-Au-13" value="Test.txt" style="text;html=1;strokeColor=none;fillColor=none;align=center;verticalAlign=middle;whiteSpace=wrap;rounded=0;" vertex="1" parent="1">
          <mxGeometry x="273.03" y="280" width="66.97" height="30" as="geometry" />
        </mxCell>
        <mxCell id="ccUrM3d9FcwV-wmx_-Au-14" value="" style="sketch=0;outlineConnect=0;fontColor=#232F3E;gradientColor=none;fillColor=#232F3D;strokeColor=none;dashed=0;verticalLabelPosition=bottom;verticalAlign=top;align=center;html=1;fontSize=12;fontStyle=0;aspect=fixed;pointerEvents=1;shape=mxgraph.aws4.document;" vertex="1" parent="1">
          <mxGeometry x="220" y="275" width="29.23" height="40" as="geometry" />
        </mxCell>
      </root>
    </mxGraphModel>
  </diagram>
</mxfile>
